# xmcd
# Track frame offsets:
# 150
# 25460
# 47092
# 71395
# 88047
# 106572
# 127330
# 146935
# 167097
# 189392
# 201972
# 224817
#
# Disc length: 3216 seconds
# Revision: 8
# Processed by: cddbd v1.5.2PL0 Copyright (c) Steve Scherf et al.
# Submitted via: VisiTrax 2.11.3.279 - For more info visit www.synapsa.com
#
DISCID=ba0c8e0c
DTITLE=Allison, Luther - Blue Streak
DYEAR=1995
DGENRE=Blues
TTITLE0=All The King's Horses
TTITLE1=What Have I Done Wrong?
TTITLE2=Big City
TTITLE3=Move From "The Hood"
TTITLE4=What's Going On In My Home?
TTITLE5=I Believe In You
TTITLE6=Watching You
TTITLE7=Walking Papers
TTITLE8=Think With Your Heart
TTITLE9=You Don't Know
TTITLE10=Should I Wait?
TTITLE11=Midnight Creeper
EXTD=
EXTT0=
EXTT1=
EXTT2=
EXTT3=
EXTT4=
EXTT5=
EXTT6=
EXTT7=
EXTT8=
EXTT9=
EXTT10=
EXTT11=
PLAYORDER=
